<?xml version="1.0" encoding="UTF-8"?>
<!DOCTYPE svg PUBLIC "-//W3C//DTD SVG 1.1//EN" "http://www.w3.org/Graphics/SVG/1.1/DTD/svg11.dtd">
<svg xmlns="http://www.w3.org/2000/svg" version="1.1" width="512px" height="512px" style="shape-rendering:geometricPrecision; text-rendering:geometricPrecision; image-rendering:optimizeQuality; fill-rule:evenodd; clip-rule:evenodd" xmlns:xlink="http://www.w3.org/1999/xlink">
<g><path style="opacity:1" fill="#97e5fb" d="M 127.5,24.5 C 145.17,24.3334 162.836,24.5001 180.5,25C 186.708,33.9128 192.541,43.0795 198,52.5C 198.703,54.9291 198.537,57.2625 197.5,59.5C 165.833,59.5 134.167,59.5 102.5,59.5C 109.731,48.0522 117.231,36.7188 125,25.5C 125.671,24.7476 126.504,24.4142 127.5,24.5 Z"/></g>
<g><path style="opacity:1" fill="#33d1e3" d="M 127.5,24.5 C 155.997,23.3362 184.664,23.1696 213.5,24C 220.341,32.1528 226.841,40.6528 233,49.5C 235.112,52.7271 236.945,56.0604 238.5,59.5C 224.833,59.5 211.167,59.5 197.5,59.5C 198.537,57.2625 198.703,54.9291 198,52.5C 192.541,43.0795 186.708,33.9128 180.5,25C 162.836,24.5001 145.17,24.3334 127.5,24.5 Z"/></g>
<g><path style="opacity:0.992" fill="#2fd0e1" d="M 102.5,59.5 C 134.167,59.5 165.833,59.5 197.5,59.5C 185.526,77.8157 173.526,96.149 161.5,114.5C 165.982,115.167 170.316,115.834 174.5,116.5C 163.154,116.486 151.821,116.819 140.5,117.5C 128.599,100.05 116.432,82.7164 104,65.5C 102.872,63.6547 102.372,61.6547 102.5,59.5 Z"/></g>
<g><path style="opacity:1" fill="#02b1cd" d="M 197.5,59.5 C 211.167,59.5 224.833,59.5 238.5,59.5C 238.54,62.4245 237.707,65.0912 236,67.5C 223.902,84.0493 212.069,100.716 200.5,117.5C 197.167,117.5 193.833,117.5 190.5,117.5C 185.36,116.512 180.026,116.179 174.5,116.5C 170.316,115.834 165.982,115.167 161.5,114.5C 173.526,96.149 185.526,77.8157 197.5,59.5 Z"/></g>
<g><path style="opacity:1" fill="#97e5fb" d="M 481.5,105.5 C 482.649,120.426 482.816,135.426 482,150.5C 481.311,151.357 480.478,152.023 479.5,152.5C 454.348,132.425 429.015,112.592 403.5,93C 402.177,92.1841 401.511,91.0174 401.5,89.5C 414.286,85.0712 427.12,80.7379 440,76.5C 442.819,76.9931 445.319,78.1597 447.5,80C 459.08,88.2774 470.414,96.7774 481.5,105.5 Z"/></g>
<g><path style="opacity:0.997" fill="#2fd1e2" d="M 401.5,89.5 C 401.511,91.0174 402.177,92.1841 403.5,93C 429.015,112.592 454.348,132.425 479.5,152.5C 480.478,152.023 481.311,151.357 482,150.5C 482.816,135.426 482.649,120.426 481.5,105.5C 491.821,111.998 501.821,118.998 511.5,126.5C 511.5,141.167 511.5,155.833 511.5,170.5C 510.341,172.25 508.674,173.25 506.5,173.5C 497.835,167.492 489.501,160.992 481.5,154C 480.5,153.833 479.5,153.667 478.5,153.5C 458.461,159.401 438.794,166.068 419.5,173.5C 413.194,170.012 406.86,166.512 400.5,163C 399.619,162.292 398.953,161.458 398.5,160.5C 398.333,137.498 398.5,114.498 399,91.5C 399.708,90.6195 400.542,89.9528 401.5,89.5 Z"/></g>
<g><path style="opacity:0.99" fill="#fece85" d="M 174.5,116.5 C 180.026,116.179 185.36,116.512 190.5,117.5C 189.903,117.735 189.57,118.235 189.5,119C 194.295,136.603 197.962,154.436 200.5,172.5C 148.122,161.569 105.622,177.235 73,219.5C 50.2392,255.109 46.2392,292.775 61,332.5C 80.4114,375.39 113.578,399.724 160.5,405.5C 151.142,422.876 139.809,438.876 126.5,453.5C 66.1585,435.326 25.9918,396.326 6,336.5C 3.2312,326.15 1.06453,315.816 -0.5,305.5C -0.5,293.167 -0.5,280.833 -0.5,268.5C 12.9892,187.007 59.9892,136.674 140.5,117.5C 151.821,116.819 163.154,116.486 174.5,116.5 Z"/></g>
<g><path style="opacity:1" fill="#fdb440" d="M 190.5,117.5 C 193.833,117.5 197.167,117.5 200.5,117.5C 227.942,122.56 252.609,133.56 274.5,150.5C 283.073,157.567 291.239,165.234 299,173.5C 305.03,181.685 311.197,189.685 317.5,197.5C 351.244,258.084 350.744,318.418 316,378.5C 305.14,395.861 291.64,410.861 275.5,423.5C 257.089,416.765 242.089,405.432 230.5,389.5C 267.958,365.809 287.625,331.643 289.5,287C 288.468,259.733 279.801,235.233 263.5,213.5C 251.701,197.699 236.701,186.032 218.5,178.5C 212.699,175.934 206.699,173.934 200.5,172.5C 197.962,154.436 194.295,136.603 189.5,119C 189.57,118.235 189.903,117.735 190.5,117.5 Z"/></g>
<g><path style="opacity:0.989" fill="#fecd84" d="M 392.5,158.5 C 396.851,180.624 399.518,202.957 400.5,225.5C 376.404,205.357 348.737,196.024 317.5,197.5C 311.197,189.685 305.03,181.685 299,173.5C 291.239,165.234 283.073,157.567 274.5,150.5C 314.901,139.266 354.234,141.933 392.5,158.5 Z"/></g>
<g><path style="opacity:1" fill="#03b1cd" d="M 506.5,173.5 C 486.465,181.068 466.132,188.068 445.5,194.5C 436.828,187.493 428.161,180.493 419.5,173.5C 438.794,166.068 458.461,159.401 478.5,153.5C 479.5,153.667 480.5,153.833 481.5,154C 489.501,160.992 497.835,167.492 506.5,173.5 Z"/></g>
<g><path style="opacity:1" fill="#fdb441" d="M 392.5,158.5 C 394.5,159.167 396.5,159.833 398.5,160.5C 398.953,161.458 399.619,162.292 400.5,163C 406.86,166.512 413.194,170.012 419.5,173.5C 428.161,180.493 436.828,187.493 445.5,194.5C 490.882,244.367 504.715,302.033 487,367.5C 461.245,438.577 410.745,478.41 335.5,487C 325.478,487.699 315.478,487.532 305.5,486.5C 324.117,470.225 339.783,451.558 352.5,430.5C 398.474,417.025 427.307,387.025 439,340.5C 446.988,294.964 434.155,256.631 400.5,225.5C 399.518,202.957 396.851,180.624 392.5,158.5 Z"/></g>
<g><path style="opacity:0.991" fill="#fecd85" d="M 218.5,178.5 C 236.701,186.032 251.701,197.699 263.5,213.5C 225.834,236.802 206.167,270.802 204.5,315.5C 205.043,343.134 213.71,367.801 230.5,389.5C 242.089,405.432 257.089,416.765 275.5,423.5C 300.222,434.986 325.889,437.319 352.5,430.5C 339.783,451.558 324.117,470.225 305.5,486.5C 273.327,483.003 244.327,471.67 218.5,452.5C 218.489,450.983 217.823,449.816 216.5,449C 209.069,443.573 202.236,437.407 196,430.5C 189.48,422.098 182.98,413.764 176.5,405.5C 143.771,346.784 143.271,287.784 175,228.5C 186.84,209.495 201.34,192.828 218.5,178.5 Z"/></g>
<g><path style="opacity:1" fill="#fdb441" d="M 160.5,405.5 C 165.833,405.5 171.167,405.5 176.5,405.5C 182.98,413.764 189.48,422.098 196,430.5C 202.236,437.407 209.069,443.573 216.5,449C 217.823,449.816 218.489,450.983 218.5,452.5C 187.921,460.094 157.254,460.427 126.5,453.5C 139.809,438.876 151.142,422.876 160.5,405.5 Z"/></g>
</svg>
